<?xml version="1.0" encoding="UTF-8" standalone="no"?>
<!DOCTYPE svg PUBLIC "-//W3C//DTD SVG 1.1//EN"
 "http://www.w3.org/Graphics/SVG/1.1/DTD/svg11.dtd">
<!-- Generated by graphviz version 13.1.1 (20250719.2154)
 -->
<!-- Title: SuffixTrie Pages: 1 -->
<svg width="616pt" height="273pt"
 viewBox="0.00 0.00 616.00 273.00" xmlns="http://www.w3.org/2000/svg" xmlns:xlink="http://www.w3.org/1999/xlink">
<g id="graph0" class="graph" transform="scale(1 1) rotate(0) translate(4 269.08)">
<title>SuffixTrie</title>
<polygon fill="white" stroke="none" points="-4,4 -4,-269.08 612.06,-269.08 612.06,4 -4,4"/>
<!-- n0 -->
<g id="node1" class="node">
<title>n0</title>
<ellipse fill="none" stroke="black" cx="18" cy="-155.54" rx="18" ry="18"/>
<text xml:space="preserve" text-anchor="middle" x="18" y="-151.67" font-family="Times New Roman,serif" font-size="10.00">0:6</text>
</g>
<!-- n15 -->
<g id="node2" class="node">
<title>n15</title>
<ellipse fill="none" stroke="black" cx="98.29" cy="-242.54" rx="19.54" ry="19.54"/>
<text xml:space="preserve" text-anchor="middle" x="98.29" y="-238.67" font-family="Times New Roman,serif" font-size="10.00">15:1</text>
</g>
<!-- n0&#45;&gt;n15 -->
<g id="edge1" class="edge">
<title>n0&#45;&gt;n15</title>
<path fill="none" stroke="black" d="M30.89,-168.75C43.09,-182.31 62.3,-203.66 76.93,-219.91"/>
<polygon fill="black" stroke="black" points="74.2,-222.12 83.49,-227.21 79.41,-217.43 74.2,-222.12"/>
<text xml:space="preserve" text-anchor="middle" x="57.38" y="-204.85" font-family="Times New Roman,serif" font-size="14.00">n</text>
</g>
<!-- n1 -->
<g id="node8" class="node">
<title>n1</title>
<ellipse fill="none" stroke="black" cx="98.29" cy="-186.54" rx="18" ry="18"/>
<text xml:space="preserve" text-anchor="middle" x="98.29" y="-182.67" font-family="Times New Roman,serif" font-size="10.00">1:1</text>
</g>
<!-- n0&#45;&gt;n1 -->
<g id="edge7" class="edge">
<title>n0&#45;&gt;n1</title>
<path fill="none" stroke="black" d="M35.22,-161.96C45.4,-166 58.78,-171.29 70.51,-175.94"/>
<polygon fill="black" stroke="black" points="69.1,-179.14 79.68,-179.57 71.67,-172.63 69.1,-179.14"/>
<text xml:space="preserve" text-anchor="middle" x="57.38" y="-175.17" font-family="Times New Roman,serif" font-size="14.00">o</text>
</g>
<!-- n3 -->
<g id="node10" class="node">
<title>n3</title>
<ellipse fill="none" stroke="black" cx="98.29" cy="-132.54" rx="18" ry="18"/>
<text xml:space="preserve" text-anchor="middle" x="98.29" y="-128.67" font-family="Times New Roman,serif" font-size="10.00">3:3</text>
</g>
<!-- n0&#45;&gt;n3 -->
<g id="edge9" class="edge">
<title>n0&#45;&gt;n3</title>
<path fill="none" stroke="black" d="M35.32,-149.96C41.19,-148.01 47.87,-145.86 54,-144.04 59,-142.56 64.35,-141.06 69.53,-139.66"/>
<polygon fill="black" stroke="black" points="70.13,-143.12 78.91,-137.18 68.34,-136.35 70.13,-143.12"/>
<text xml:space="preserve" text-anchor="middle" x="57.38" y="-147.24" font-family="Times New Roman,serif" font-size="14.00">s</text>
</g>
<!-- n7 -->
<g id="node24" class="node">
<title>n7</title>
<ellipse fill="none" stroke="black" cx="98.29" cy="-57.54" rx="18" ry="18"/>
<text xml:space="preserve" text-anchor="middle" x="98.29" y="-53.67" font-family="Times New Roman,serif" font-size="10.00">7:1</text>
</g>
<!-- n0&#45;&gt;n7 -->
<g id="edge23" class="edge">
<title>n0&#45;&gt;n7</title>
<path fill="none" stroke="black" d="M29.89,-141.91C42.61,-125.99 63.86,-99.38 79.1,-80.3"/>
<polygon fill="black" stroke="black" points="81.79,-82.55 85.3,-72.55 76.32,-78.18 81.79,-82.55"/>
<text xml:space="preserve" text-anchor="middle" x="57.38" y="-112.68" font-family="Times New Roman,serif" font-size="14.00">y</text>
</g>
<!-- n16 -->
<g id="node3" class="node">
<title>n16</title>
<ellipse fill="none" stroke="black" cx="180.12" cy="-243.54" rx="19.54" ry="19.54"/>
<text xml:space="preserve" text-anchor="middle" x="180.12" y="-239.67" font-family="Times New Roman,serif" font-size="10.00">16:1</text>
</g>
<!-- n15&#45;&gt;n16 -->
<g id="edge2" class="edge">
<title>n15&#45;&gt;n16</title>
<path fill="none" stroke="black" d="M118.21,-242.78C127.36,-242.89 138.56,-243.03 148.85,-243.16"/>
<polygon fill="black" stroke="black" points="148.78,-246.66 158.82,-243.29 148.87,-239.66 148.78,-246.66"/>
<text xml:space="preserve" text-anchor="middle" x="139.21" y="-246.27" font-family="Times New Roman,serif" font-size="14.00">o</text>
</g>
<!-- n17 -->
<g id="node4" class="node">
<title>n17</title>
<ellipse fill="none" stroke="black" cx="261.95" cy="-244.54" rx="19.54" ry="19.54"/>
<text xml:space="preserve" text-anchor="middle" x="261.95" y="-240.67" font-family="Times New Roman,serif" font-size="10.00">17:1</text>
</g>
<!-- n16&#45;&gt;n17 -->
<g id="edge3" class="edge">
<title>n16&#45;&gt;n17</title>
<path fill="none" stroke="black" d="M200.04,-243.78C209.19,-243.89 220.39,-244.03 230.68,-244.16"/>
<polygon fill="black" stroke="black" points="230.61,-247.66 240.65,-244.29 230.7,-240.66 230.61,-247.66"/>
<text xml:space="preserve" text-anchor="middle" x="221.04" y="-247.27" font-family="Times New Roman,serif" font-size="14.00">i</text>
</g>
<!-- n18 -->
<g id="node5" class="node">
<title>n18</title>
<ellipse fill="none" stroke="black" cx="343.78" cy="-245.54" rx="19.54" ry="19.54"/>
<text xml:space="preserve" text-anchor="middle" x="343.78" y="-241.67" font-family="Times New Roman,serif" font-size="10.00">18:1</text>
</g>
<!-- n17&#45;&gt;n18 -->
<g id="edge4" class="edge">
<title>n17&#45;&gt;n18</title>
<path fill="none" stroke="black" d="M281.87,-244.78C291.02,-244.89 302.22,-245.03 312.51,-245.16"/>
<polygon fill="black" stroke="black" points="312.44,-248.66 322.48,-245.29 312.53,-241.66 312.44,-248.66"/>
<text xml:space="preserve" text-anchor="middle" x="302.87" y="-248.27" font-family="Times New Roman,serif" font-size="14.00">t</text>
</g>
<!-- n19 -->
<g id="node6" class="node">
<title>n19</title>
<ellipse fill="none" stroke="black" cx="424.86" cy="-245.54" rx="19.54" ry="19.54"/>
<text xml:space="preserve" text-anchor="middle" x="424.86" y="-241.67" font-family="Times New Roman,serif" font-size="10.00">19:1</text>
</g>
<!-- n18&#45;&gt;n19 -->
<g id="edge5" class="edge">
<title>n18&#45;&gt;n19</title>
<path fill="none" stroke="black" d="M363.52,-245.54C372.52,-245.54 383.52,-245.54 393.65,-245.54"/>
<polygon fill="black" stroke="black" points="393.47,-249.04 403.47,-245.54 393.47,-242.04 393.47,-249.04"/>
<text xml:space="preserve" text-anchor="middle" x="384.32" y="-248.74" font-family="Times New Roman,serif" font-size="14.00">a</text>
</g>
<!-- n20 -->
<g id="node7" class="node">
<title>n20</title>
<ellipse fill="none" stroke="black" cx="506.69" cy="-245.54" rx="19.54" ry="19.54"/>
<text xml:space="preserve" text-anchor="middle" x="506.69" y="-241.67" font-family="Times New Roman,serif" font-size="10.00">20:1</text>
</g>
<!-- n19&#45;&gt;n20 -->
<g id="edge6" class="edge">
<title>n19&#45;&gt;n20</title>
<path fill="none" stroke="black" d="M444.78,-245.54C453.93,-245.54 465.13,-245.54 475.42,-245.54"/>
<polygon fill="black" stroke="black" points="475.39,-249.04 485.39,-245.54 475.39,-242.04 475.39,-249.04"/>
<text xml:space="preserve" text-anchor="middle" x="465.78" y="-248.74" font-family="Times New Roman,serif" font-size="14.00">n</text>
</g>
<!-- n2 -->
<g id="node9" class="node">
<title>n2</title>
<ellipse fill="none" stroke="black" cx="180.12" cy="-186.54" rx="18" ry="18"/>
<text xml:space="preserve" text-anchor="middle" x="180.12" y="-182.67" font-family="Times New Roman,serif" font-size="10.00">2:1</text>
</g>
<!-- n1&#45;&gt;n2 -->
<g id="edge8" class="edge">
<title>n1&#45;&gt;n2</title>
<path fill="none" stroke="black" d="M116.61,-186.54C126.55,-186.54 139.27,-186.54 150.65,-186.54"/>
<polygon fill="black" stroke="black" points="150.32,-190.04 160.32,-186.54 150.32,-183.04 150.32,-190.04"/>
<text xml:space="preserve" text-anchor="middle" x="139.21" y="-189.74" font-family="Times New Roman,serif" font-size="14.00">g</text>
</g>
<!-- n4 -->
<g id="node11" class="node">
<title>n4</title>
<ellipse fill="none" stroke="black" cx="180.12" cy="-132.54" rx="18" ry="18"/>
<text xml:space="preserve" text-anchor="middle" x="180.12" y="-128.67" font-family="Times New Roman,serif" font-size="10.00">4:2</text>
</g>
<!-- n3&#45;&gt;n4 -->
<g id="edge10" class="edge">
<title>n3&#45;&gt;n4</title>
<path fill="none" stroke="black" d="M116.61,-132.54C126.55,-132.54 139.27,-132.54 150.65,-132.54"/>
<polygon fill="black" stroke="black" points="150.32,-136.04 160.32,-132.54 150.32,-129.04 150.32,-136.04"/>
<text xml:space="preserve" text-anchor="middle" x="139.21" y="-135.74" font-family="Times New Roman,serif" font-size="14.00">e</text>
</g>
<!-- n21 -->
<g id="node18" class="node">
<title>n21</title>
<ellipse fill="none" stroke="black" cx="180.12" cy="-76.54" rx="19.54" ry="19.54"/>
<text xml:space="preserve" text-anchor="middle" x="180.12" y="-72.67" font-family="Times New Roman,serif" font-size="10.00">21:1</text>
</g>
<!-- n3&#45;&gt;n21 -->
<g id="edge17" class="edge">
<title>n3&#45;&gt;n21</title>
<path fill="none" stroke="black" d="M113.56,-122.53C124.89,-114.58 141.01,-103.28 154.42,-93.86"/>
<polygon fill="black" stroke="black" points="156.19,-96.9 162.37,-88.29 152.17,-91.17 156.19,-96.9"/>
<text xml:space="preserve" text-anchor="middle" x="139.21" y="-109.42" font-family="Times New Roman,serif" font-size="14.00">n</text>
</g>
<!-- n11 -->
<g id="node12" class="node">
<title>n11</title>
<ellipse fill="none" stroke="black" cx="261.95" cy="-187.54" rx="19.06" ry="19.06"/>
<text xml:space="preserve" text-anchor="middle" x="261.95" y="-183.67" font-family="Times New Roman,serif" font-size="10.00">11:1</text>
</g>
<!-- n4&#45;&gt;n11 -->
<g id="edge11" class="edge">
<title>n4&#45;&gt;n11</title>
<path fill="none" stroke="black" d="M195.39,-142.37C206.8,-150.23 223.04,-161.42 236.51,-170.7"/>
<polygon fill="black" stroke="black" points="234.25,-173.39 244.47,-176.18 238.22,-167.63 234.25,-173.39"/>
<text xml:space="preserve" text-anchor="middle" x="221.04" y="-164.89" font-family="Times New Roman,serif" font-size="14.00">i</text>
</g>
<!-- n5 -->
<g id="node16" class="node">
<title>n5</title>
<ellipse fill="none" stroke="black" cx="261.95" cy="-132.54" rx="18" ry="18"/>
<text xml:space="preserve" text-anchor="middle" x="261.95" y="-128.67" font-family="Times New Roman,serif" font-size="10.00">5:1</text>
</g>
<!-- n4&#45;&gt;n5 -->
<g id="edge15" class="edge">
<title>n4&#45;&gt;n5</title>
<path fill="none" stroke="black" d="M198.44,-132.54C208.38,-132.54 221.1,-132.54 232.48,-132.54"/>
<polygon fill="black" stroke="black" points="232.15,-136.04 242.15,-132.54 232.15,-129.04 232.15,-136.04"/>
<text xml:space="preserve" text-anchor="middle" x="221.04" y="-135.74" font-family="Times New Roman,serif" font-size="14.00">o</text>
</g>
<!-- n12 -->
<g id="node13" class="node">
<title>n12</title>
<ellipse fill="none" stroke="black" cx="343.78" cy="-188.54" rx="19.54" ry="19.54"/>
<text xml:space="preserve" text-anchor="middle" x="343.78" y="-184.67" font-family="Times New Roman,serif" font-size="10.00">12:1</text>
</g>
<!-- n11&#45;&gt;n12 -->
<g id="edge12" class="edge">
<title>n11&#45;&gt;n12</title>
<path fill="none" stroke="black" d="M281.47,-187.77C290.7,-187.89 302.11,-188.03 312.57,-188.16"/>
<polygon fill="black" stroke="black" points="312.26,-191.66 322.3,-188.28 312.34,-184.66 312.26,-191.66"/>
<text xml:space="preserve" text-anchor="middle" x="302.87" y="-191.27" font-family="Times New Roman,serif" font-size="14.00">t</text>
</g>
<!-- n13 -->
<g id="node14" class="node">
<title>n13</title>
<ellipse fill="none" stroke="black" cx="424.86" cy="-188.54" rx="19.54" ry="19.54"/>
<text xml:space="preserve" text-anchor="middle" x="424.86" y="-184.67" font-family="Times New Roman,serif" font-size="10.00">13:1</text>
</g>
<!-- n12&#45;&gt;n13 -->
<g id="edge13" class="edge">
<title>n12&#45;&gt;n13</title>
<path fill="none" stroke="black" d="M363.52,-188.54C372.52,-188.54 383.52,-188.54 393.65,-188.54"/>
<polygon fill="black" stroke="black" points="393.47,-192.04 403.47,-188.54 393.47,-185.04 393.47,-192.04"/>
<text xml:space="preserve" text-anchor="middle" x="384.32" y="-191.74" font-family="Times New Roman,serif" font-size="14.00">i</text>
</g>
<!-- n14 -->
<g id="node15" class="node">
<title>n14</title>
<ellipse fill="none" stroke="black" cx="506.69" cy="-188.54" rx="19.54" ry="19.54"/>
<text xml:space="preserve" text-anchor="middle" x="506.69" y="-184.67" font-family="Times New Roman,serif" font-size="10.00">14:1</text>
</g>
<!-- n13&#45;&gt;n14 -->
<g id="edge14" class="edge">
<title>n13&#45;&gt;n14</title>
<path fill="none" stroke="black" d="M444.78,-188.54C453.93,-188.54 465.13,-188.54 475.42,-188.54"/>
<polygon fill="black" stroke="black" points="475.39,-192.04 485.39,-188.54 475.39,-185.04 475.39,-192.04"/>
<text xml:space="preserve" text-anchor="middle" x="465.78" y="-191.74" font-family="Times New Roman,serif" font-size="14.00">c</text>
</g>
<!-- n6 -->
<g id="node17" class="node">
<title>n6</title>
<ellipse fill="none" stroke="black" cx="343.78" cy="-132.54" rx="18" ry="18"/>
<text xml:space="preserve" text-anchor="middle" x="343.78" y="-128.67" font-family="Times New Roman,serif" font-size="10.00">6:1</text>
</g>
<!-- n5&#45;&gt;n6 -->
<g id="edge16" class="edge">
<title>n5&#45;&gt;n6</title>
<path fill="none" stroke="black" d="M280.27,-132.54C290.21,-132.54 302.93,-132.54 314.31,-132.54"/>
<polygon fill="black" stroke="black" points="313.98,-136.04 323.98,-132.54 313.98,-129.04 313.98,-136.04"/>
<text xml:space="preserve" text-anchor="middle" x="302.87" y="-135.74" font-family="Times New Roman,serif" font-size="14.00">g</text>
</g>
<!-- n22 -->
<g id="node19" class="node">
<title>n22</title>
<ellipse fill="none" stroke="black" cx="261.95" cy="-76.54" rx="19.54" ry="19.54"/>
<text xml:space="preserve" text-anchor="middle" x="261.95" y="-72.67" font-family="Times New Roman,serif" font-size="10.00">22:1</text>
</g>
<!-- n21&#45;&gt;n22 -->
<g id="edge18" class="edge">
<title>n21&#45;&gt;n22</title>
<path fill="none" stroke="black" d="M200.04,-76.54C209.19,-76.54 220.39,-76.54 230.68,-76.54"/>
<polygon fill="black" stroke="black" points="230.65,-80.04 240.65,-76.54 230.65,-73.04 230.65,-80.04"/>
<text xml:space="preserve" text-anchor="middle" x="221.04" y="-79.74" font-family="Times New Roman,serif" font-size="14.00">o</text>
</g>
<!-- n23 -->
<g id="node20" class="node">
<title>n23</title>
<ellipse fill="none" stroke="black" cx="343.78" cy="-76.54" rx="19.54" ry="19.54"/>
<text xml:space="preserve" text-anchor="middle" x="343.78" y="-72.67" font-family="Times New Roman,serif" font-size="10.00">23:1</text>
</g>
<!-- n22&#45;&gt;n23 -->
<g id="edge19" class="edge">
<title>n22&#45;&gt;n23</title>
<path fill="none" stroke="black" d="M281.87,-76.54C291.02,-76.54 302.22,-76.54 312.51,-76.54"/>
<polygon fill="black" stroke="black" points="312.48,-80.04 322.48,-76.54 312.48,-73.04 312.48,-80.04"/>
<text xml:space="preserve" text-anchor="middle" x="302.87" y="-79.74" font-family="Times New Roman,serif" font-size="14.00">i</text>
</g>
<!-- n24 -->
<g id="node21" class="node">
<title>n24</title>
<ellipse fill="none" stroke="black" cx="424.86" cy="-76.54" rx="19.54" ry="19.54"/>
<text xml:space="preserve" text-anchor="middle" x="424.86" y="-72.67" font-family="Times New Roman,serif" font-size="10.00">24:1</text>
</g>
<!-- n23&#45;&gt;n24 -->
<g id="edge20" class="edge">
<title>n23&#45;&gt;n24</title>
<path fill="none" stroke="black" d="M363.52,-76.54C372.52,-76.54 383.52,-76.54 393.65,-76.54"/>
<polygon fill="black" stroke="black" points="393.47,-80.04 403.47,-76.54 393.47,-73.04 393.47,-80.04"/>
<text xml:space="preserve" text-anchor="middle" x="384.32" y="-79.74" font-family="Times New Roman,serif" font-size="14.00">t</text>
</g>
<!-- n25 -->
<g id="node22" class="node">
<title>n25</title>
<ellipse fill="none" stroke="black" cx="506.69" cy="-76.54" rx="19.54" ry="19.54"/>
<text xml:space="preserve" text-anchor="middle" x="506.69" y="-72.67" font-family="Times New Roman,serif" font-size="10.00">25:1</text>
</g>
<!-- n24&#45;&gt;n25 -->
<g id="edge21" class="edge">
<title>n24&#45;&gt;n25</title>
<path fill="none" stroke="black" d="M444.78,-76.54C453.93,-76.54 465.13,-76.54 475.42,-76.54"/>
<polygon fill="black" stroke="black" points="475.39,-80.04 485.39,-76.54 475.39,-73.04 475.39,-80.04"/>
<text xml:space="preserve" text-anchor="middle" x="465.78" y="-79.74" font-family="Times New Roman,serif" font-size="14.00">a</text>
</g>
<!-- n26 -->
<g id="node23" class="node">
<title>n26</title>
<ellipse fill="none" stroke="black" cx="588.52" cy="-76.54" rx="19.54" ry="19.54"/>
<text xml:space="preserve" text-anchor="middle" x="588.52" y="-72.67" font-family="Times New Roman,serif" font-size="10.00">26:1</text>
</g>
<!-- n25&#45;&gt;n26 -->
<g id="edge22" class="edge">
<title>n25&#45;&gt;n26</title>
<path fill="none" stroke="black" d="M526.61,-76.54C535.76,-76.54 546.96,-76.54 557.25,-76.54"/>
<polygon fill="black" stroke="black" points="557.23,-80.04 567.23,-76.54 557.23,-73.04 557.23,-80.04"/>
<text xml:space="preserve" text-anchor="middle" x="547.61" y="-79.74" font-family="Times New Roman,serif" font-size="14.00">n</text>
</g>
<!-- n8 -->
<g id="node25" class="node">
<title>n8</title>
<ellipse fill="none" stroke="black" cx="180.12" cy="-20.54" rx="18" ry="18"/>
<text xml:space="preserve" text-anchor="middle" x="180.12" y="-16.67" font-family="Times New Roman,serif" font-size="10.00">8:1</text>
</g>
<!-- n7&#45;&gt;n8 -->
<g id="edge24" class="edge">
<title>n7&#45;&gt;n8</title>
<path fill="none" stroke="black" d="M115.06,-50.23C125.89,-45.21 140.51,-38.44 153.04,-32.63"/>
<polygon fill="black" stroke="black" points="154.41,-35.85 162.01,-28.47 151.46,-29.5 154.41,-35.85"/>
<text xml:space="preserve" text-anchor="middle" x="139.21" y="-43.35" font-family="Times New Roman,serif" font-size="14.00">t</text>
</g>
<!-- n9 -->
<g id="node26" class="node">
<title>n9</title>
<ellipse fill="none" stroke="black" cx="261.95" cy="-20.54" rx="18" ry="18"/>
<text xml:space="preserve" text-anchor="middle" x="261.95" y="-16.67" font-family="Times New Roman,serif" font-size="10.00">9:1</text>
</g>
<!-- n8&#45;&gt;n9 -->
<g id="edge25" class="edge">
<title>n8&#45;&gt;n9</title>
<path fill="none" stroke="black" d="M198.44,-20.54C208.38,-20.54 221.1,-20.54 232.48,-20.54"/>
<polygon fill="black" stroke="black" points="232.15,-24.04 242.15,-20.54 232.15,-17.04 232.15,-24.04"/>
<text xml:space="preserve" text-anchor="middle" x="221.04" y="-23.74" font-family="Times New Roman,serif" font-size="14.00">i</text>
</g>
<!-- n10 -->
<g id="node27" class="node">
<title>n10</title>
<ellipse fill="none" stroke="black" cx="343.78" cy="-19.54" rx="19.54" ry="19.54"/>
<text xml:space="preserve" text-anchor="middle" x="343.78" y="-15.67" font-family="Times New Roman,serif" font-size="10.00">10:1</text>
</g>
<!-- n9&#45;&gt;n10 -->
<g id="edge26" class="edge">
<title>n9&#45;&gt;n10</title>
<path fill="none" stroke="black" d="M280.27,-20.32C289.7,-20.21 301.64,-20.06 312.55,-19.92"/>
<polygon fill="black" stroke="black" points="312.35,-23.42 322.3,-19.8 312.26,-16.42 312.35,-23.42"/>
<text xml:space="preserve" text-anchor="middle" x="302.87" y="-23.27" font-family="Times New Roman,serif" font-size="14.00">c</text>
</g>
</g>
</svg>
