<?xml version="1.0" encoding="UTF-8" standalone="no"?>
<!DOCTYPE svg PUBLIC "-//W3C//DTD SVG 1.1//EN"
 "http://www.w3.org/Graphics/SVG/1.1/DTD/svg11.dtd">
<!-- Generated by graphviz version 13.1.1 (20250719.2154)
 -->
<!-- Title: PrefixTrie Pages: 1 -->
<svg width="615pt" height="211pt"
 viewBox="0.00 0.00 615.00 211.00" xmlns="http://www.w3.org/2000/svg" xmlns:xlink="http://www.w3.org/1999/xlink">
<g id="graph0" class="graph" transform="scale(1 1) rotate(0) translate(4 207.08)">
<title>PrefixTrie</title>
<polygon fill="white" stroke="none" points="-4,4 -4,-207.08 610.56,-207.08 610.56,4 -4,4"/>
<!-- n0 -->
<g id="node1" class="node">
<title>n0</title>
<ellipse fill="none" stroke="black" cx="18" cy="-75.54" rx="18" ry="18"/>
<text xml:space="preserve" text-anchor="middle" x="18" y="-71.67" font-family="Times New Roman,serif" font-size="10.00">0:6</text>
</g>
<!-- n5 -->
<g id="node2" class="node">
<title>n5</title>
<ellipse fill="none" stroke="black" cx="98.29" cy="-129.54" rx="18" ry="18"/>
<text xml:space="preserve" text-anchor="middle" x="98.29" y="-125.67" font-family="Times New Roman,serif" font-size="10.00">5:2</text>
</g>
<!-- n0&#45;&gt;n5 -->
<g id="edge1" class="edge">
<title>n0&#45;&gt;n5</title>
<path fill="none" stroke="black" d="M33.36,-85.44C44.55,-93.16 60.32,-104.04 73.4,-113.06"/>
<polygon fill="black" stroke="black" points="71.29,-115.86 81.51,-118.66 75.27,-110.1 71.29,-115.86"/>
<text xml:space="preserve" text-anchor="middle" x="57.38" y="-107.36" font-family="Times New Roman,serif" font-size="14.00">c</text>
</g>
<!-- n1 -->
<g id="node9" class="node">
<title>n1</title>
<ellipse fill="none" stroke="black" cx="98.29" cy="-75.54" rx="18" ry="18"/>
<text xml:space="preserve" text-anchor="middle" x="98.29" y="-71.67" font-family="Times New Roman,serif" font-size="10.00">1:2</text>
</g>
<!-- n0&#45;&gt;n1 -->
<g id="edge8" class="edge">
<title>n0&#45;&gt;n1</title>
<path fill="none" stroke="black" d="M36.38,-75.54C45.8,-75.54 57.7,-75.54 68.47,-75.54"/>
<polygon fill="black" stroke="black" points="68.45,-79.04 78.45,-75.54 68.45,-72.04 68.45,-79.04"/>
<text xml:space="preserve" text-anchor="middle" x="57.38" y="-78.74" font-family="Times New Roman,serif" font-size="14.00">g</text>
</g>
<!-- n12 -->
<g id="node13" class="node">
<title>n12</title>
<ellipse fill="none" stroke="black" cx="98.29" cy="-19.54" rx="19.54" ry="19.54"/>
<text xml:space="preserve" text-anchor="middle" x="98.29" y="-15.67" font-family="Times New Roman,serif" font-size="10.00">12:2</text>
</g>
<!-- n0&#45;&gt;n12 -->
<g id="edge12" class="edge">
<title>n0&#45;&gt;n12</title>
<path fill="none" stroke="black" d="M33.36,-65.27C44.26,-57.47 59.53,-46.55 72.41,-37.34"/>
<polygon fill="black" stroke="black" points="74.35,-40.25 80.45,-31.59 70.28,-34.56 74.35,-40.25"/>
<text xml:space="preserve" text-anchor="middle" x="57.38" y="-52.42" font-family="Times New Roman,serif" font-size="14.00">n</text>
</g>
<!-- n6 -->
<g id="node3" class="node">
<title>n6</title>
<ellipse fill="none" stroke="black" cx="180.12" cy="-129.54" rx="18" ry="18"/>
<text xml:space="preserve" text-anchor="middle" x="180.12" y="-125.67" font-family="Times New Roman,serif" font-size="10.00">6:2</text>
</g>
<!-- n5&#45;&gt;n6 -->
<g id="edge2" class="edge">
<title>n5&#45;&gt;n6</title>
<path fill="none" stroke="black" d="M116.61,-129.54C126.55,-129.54 139.27,-129.54 150.65,-129.54"/>
<polygon fill="black" stroke="black" points="150.32,-133.04 160.32,-129.54 150.32,-126.04 150.32,-133.04"/>
<text xml:space="preserve" text-anchor="middle" x="139.21" y="-132.74" font-family="Times New Roman,serif" font-size="14.00">i</text>
</g>
<!-- n7 -->
<g id="node4" class="node">
<title>n7</title>
<ellipse fill="none" stroke="black" cx="261.2" cy="-129.54" rx="18" ry="18"/>
<text xml:space="preserve" text-anchor="middle" x="261.2" y="-125.67" font-family="Times New Roman,serif" font-size="10.00">7:2</text>
</g>
<!-- n6&#45;&gt;n7 -->
<g id="edge3" class="edge">
<title>n6&#45;&gt;n7</title>
<path fill="none" stroke="black" d="M198.28,-129.54C207.95,-129.54 220.29,-129.54 231.41,-129.54"/>
<polygon fill="black" stroke="black" points="231.29,-133.04 241.29,-129.54 231.29,-126.04 231.29,-133.04"/>
<text xml:space="preserve" text-anchor="middle" x="220.66" y="-132.74" font-family="Times New Roman,serif" font-size="14.00">t</text>
</g>
<!-- n9 -->
<g id="node5" class="node">
<title>n9</title>
<ellipse fill="none" stroke="black" cx="343.03" cy="-183.54" rx="18" ry="18"/>
<text xml:space="preserve" text-anchor="middle" x="343.03" y="-179.67" font-family="Times New Roman,serif" font-size="10.00">9:1</text>
</g>
<!-- n7&#45;&gt;n9 -->
<g id="edge4" class="edge">
<title>n7&#45;&gt;n9</title>
<path fill="none" stroke="black" d="M276.47,-139.19C288.09,-147.05 304.74,-158.32 318.35,-167.52"/>
<polygon fill="black" stroke="black" points="316.12,-170.24 326.36,-172.94 320.04,-164.44 316.12,-170.24"/>
<text xml:space="preserve" text-anchor="middle" x="302.12" y="-161.36" font-family="Times New Roman,serif" font-size="14.00">i</text>
</g>
<!-- n8 -->
<g id="node8" class="node">
<title>n8</title>
<ellipse fill="none" stroke="black" cx="343.03" cy="-129.54" rx="18" ry="18"/>
<text xml:space="preserve" text-anchor="middle" x="343.03" y="-125.67" font-family="Times New Roman,serif" font-size="10.00">8:1</text>
</g>
<!-- n7&#45;&gt;n8 -->
<g id="edge7" class="edge">
<title>n7&#45;&gt;n8</title>
<path fill="none" stroke="black" d="M279.52,-129.54C289.46,-129.54 302.18,-129.54 313.56,-129.54"/>
<polygon fill="black" stroke="black" points="313.23,-133.04 323.23,-129.54 313.23,-126.04 313.23,-133.04"/>
<text xml:space="preserve" text-anchor="middle" x="302.12" y="-132.74" font-family="Times New Roman,serif" font-size="14.00">y</text>
</g>
<!-- n10 -->
<g id="node6" class="node">
<title>n10</title>
<ellipse fill="none" stroke="black" cx="424.86" cy="-183.54" rx="19.54" ry="19.54"/>
<text xml:space="preserve" text-anchor="middle" x="424.86" y="-179.67" font-family="Times New Roman,serif" font-size="10.00">10:1</text>
</g>
<!-- n9&#45;&gt;n10 -->
<g id="edge5" class="edge">
<title>n9&#45;&gt;n10</title>
<path fill="none" stroke="black" d="M361.35,-183.54C370.78,-183.54 382.72,-183.54 393.63,-183.54"/>
<polygon fill="black" stroke="black" points="393.38,-187.04 403.38,-183.54 393.38,-180.04 393.38,-187.04"/>
<text xml:space="preserve" text-anchor="middle" x="383.95" y="-186.74" font-family="Times New Roman,serif" font-size="14.00">e</text>
</g>
<!-- n11 -->
<g id="node7" class="node">
<title>n11</title>
<ellipse fill="none" stroke="black" cx="506.69" cy="-183.54" rx="19.06" ry="19.06"/>
<text xml:space="preserve" text-anchor="middle" x="506.69" y="-179.67" font-family="Times New Roman,serif" font-size="10.00">11:1</text>
</g>
<!-- n10&#45;&gt;n11 -->
<g id="edge6" class="edge">
<title>n10&#45;&gt;n11</title>
<path fill="none" stroke="black" d="M444.78,-183.54C454.09,-183.54 465.54,-183.54 475.98,-183.54"/>
<polygon fill="black" stroke="black" points="475.67,-187.04 485.67,-183.54 475.67,-180.04 475.67,-187.04"/>
<text xml:space="preserve" text-anchor="middle" x="465.78" y="-186.74" font-family="Times New Roman,serif" font-size="14.00">s</text>
</g>
<!-- n2 -->
<g id="node10" class="node">
<title>n2</title>
<ellipse fill="none" stroke="black" cx="180.12" cy="-75.54" rx="18" ry="18"/>
<text xml:space="preserve" text-anchor="middle" x="180.12" y="-71.67" font-family="Times New Roman,serif" font-size="10.00">2:2</text>
</g>
<!-- n1&#45;&gt;n2 -->
<g id="edge9" class="edge">
<title>n1&#45;&gt;n2</title>
<path fill="none" stroke="black" d="M116.61,-75.54C126.55,-75.54 139.27,-75.54 150.65,-75.54"/>
<polygon fill="black" stroke="black" points="150.32,-79.04 160.32,-75.54 150.32,-72.04 150.32,-79.04"/>
<text xml:space="preserve" text-anchor="middle" x="139.21" y="-78.74" font-family="Times New Roman,serif" font-size="14.00">o</text>
</g>
<!-- n3 -->
<g id="node11" class="node">
<title>n3</title>
<ellipse fill="none" stroke="black" cx="261.2" cy="-75.54" rx="18" ry="18"/>
<text xml:space="preserve" text-anchor="middle" x="261.2" y="-71.67" font-family="Times New Roman,serif" font-size="10.00">3:1</text>
</g>
<!-- n2&#45;&gt;n3 -->
<g id="edge10" class="edge">
<title>n2&#45;&gt;n3</title>
<path fill="none" stroke="black" d="M198.28,-75.54C207.95,-75.54 220.29,-75.54 231.41,-75.54"/>
<polygon fill="black" stroke="black" points="231.29,-79.04 241.29,-75.54 231.29,-72.04 231.29,-79.04"/>
<text xml:space="preserve" text-anchor="middle" x="220.66" y="-78.74" font-family="Times New Roman,serif" font-size="14.00">e</text>
</g>
<!-- n4 -->
<g id="node12" class="node">
<title>n4</title>
<ellipse fill="none" stroke="black" cx="343.03" cy="-75.54" rx="18" ry="18"/>
<text xml:space="preserve" text-anchor="middle" x="343.03" y="-71.67" font-family="Times New Roman,serif" font-size="10.00">4:1</text>
</g>
<!-- n3&#45;&gt;n4 -->
<g id="edge11" class="edge">
<title>n3&#45;&gt;n4</title>
<path fill="none" stroke="black" d="M279.52,-75.54C289.46,-75.54 302.18,-75.54 313.56,-75.54"/>
<polygon fill="black" stroke="black" points="313.23,-79.04 323.23,-75.54 313.23,-72.04 313.23,-79.04"/>
<text xml:space="preserve" text-anchor="middle" x="302.12" y="-78.74" font-family="Times New Roman,serif" font-size="14.00">s</text>
</g>
<!-- n13 -->
<g id="node14" class="node">
<title>n13</title>
<ellipse fill="none" stroke="black" cx="180.12" cy="-19.54" rx="19.54" ry="19.54"/>
<text xml:space="preserve" text-anchor="middle" x="180.12" y="-15.67" font-family="Times New Roman,serif" font-size="10.00">13:2</text>
</g>
<!-- n12&#45;&gt;n13 -->
<g id="edge13" class="edge">
<title>n12&#45;&gt;n13</title>
<path fill="none" stroke="black" d="M118.21,-19.54C127.36,-19.54 138.56,-19.54 148.85,-19.54"/>
<polygon fill="black" stroke="black" points="148.82,-23.04 158.82,-19.54 148.82,-16.04 148.82,-23.04"/>
<text xml:space="preserve" text-anchor="middle" x="139.21" y="-22.74" font-family="Times New Roman,serif" font-size="14.00">a</text>
</g>
<!-- n14 -->
<g id="node15" class="node">
<title>n14</title>
<ellipse fill="none" stroke="black" cx="261.2" cy="-19.54" rx="19.54" ry="19.54"/>
<text xml:space="preserve" text-anchor="middle" x="261.2" y="-15.67" font-family="Times New Roman,serif" font-size="10.00">14:2</text>
</g>
<!-- n13&#45;&gt;n14 -->
<g id="edge14" class="edge">
<title>n13&#45;&gt;n14</title>
<path fill="none" stroke="black" d="M199.86,-19.54C208.86,-19.54 219.86,-19.54 229.99,-19.54"/>
<polygon fill="black" stroke="black" points="229.81,-23.04 239.81,-19.54 229.81,-16.04 229.81,-23.04"/>
<text xml:space="preserve" text-anchor="middle" x="220.66" y="-22.74" font-family="Times New Roman,serif" font-size="14.00">t</text>
</g>
<!-- n15 -->
<g id="node16" class="node">
<title>n15</title>
<ellipse fill="none" stroke="black" cx="343.03" cy="-19.54" rx="19.54" ry="19.54"/>
<text xml:space="preserve" text-anchor="middle" x="343.03" y="-15.67" font-family="Times New Roman,serif" font-size="10.00">15:2</text>
</g>
<!-- n14&#45;&gt;n15 -->
<g id="edge15" class="edge">
<title>n14&#45;&gt;n15</title>
<path fill="none" stroke="black" d="M281.12,-19.54C290.27,-19.54 301.47,-19.54 311.76,-19.54"/>
<polygon fill="black" stroke="black" points="311.73,-23.04 321.73,-19.54 311.73,-16.04 311.73,-23.04"/>
<text xml:space="preserve" text-anchor="middle" x="302.12" y="-22.74" font-family="Times New Roman,serif" font-size="14.00">i</text>
</g>
<!-- n16 -->
<g id="node17" class="node">
<title>n16</title>
<ellipse fill="none" stroke="black" cx="424.86" cy="-19.54" rx="19.54" ry="19.54"/>
<text xml:space="preserve" text-anchor="middle" x="424.86" y="-15.67" font-family="Times New Roman,serif" font-size="10.00">16:2</text>
</g>
<!-- n15&#45;&gt;n16 -->
<g id="edge16" class="edge">
<title>n15&#45;&gt;n16</title>
<path fill="none" stroke="black" d="M362.95,-19.54C372.1,-19.54 383.3,-19.54 393.59,-19.54"/>
<polygon fill="black" stroke="black" points="393.56,-23.04 403.56,-19.54 393.56,-16.04 393.56,-23.04"/>
<text xml:space="preserve" text-anchor="middle" x="383.95" y="-22.74" font-family="Times New Roman,serif" font-size="14.00">o</text>
</g>
<!-- n17 -->
<g id="node18" class="node">
<title>n17</title>
<ellipse fill="none" stroke="black" cx="506.69" cy="-19.54" rx="19.54" ry="19.54"/>
<text xml:space="preserve" text-anchor="middle" x="506.69" y="-15.67" font-family="Times New Roman,serif" font-size="10.00">17:2</text>
</g>
<!-- n16&#45;&gt;n17 -->
<g id="edge17" class="edge">
<title>n16&#45;&gt;n17</title>
<path fill="none" stroke="black" d="M444.78,-19.54C453.93,-19.54 465.13,-19.54 475.42,-19.54"/>
<polygon fill="black" stroke="black" points="475.39,-23.04 485.39,-19.54 475.39,-16.04 475.39,-23.04"/>
<text xml:space="preserve" text-anchor="middle" x="465.78" y="-22.74" font-family="Times New Roman,serif" font-size="14.00">n</text>
</g>
<!-- n18 -->
<g id="node19" class="node">
<title>n18</title>
<ellipse fill="none" stroke="black" cx="587.02" cy="-19.54" rx="19.54" ry="19.54"/>
<text xml:space="preserve" text-anchor="middle" x="587.02" y="-15.67" font-family="Times New Roman,serif" font-size="10.00">18:1</text>
</g>
<!-- n17&#45;&gt;n18 -->
<g id="edge18" class="edge">
<title>n17&#45;&gt;n18</title>
<path fill="none" stroke="black" d="M526.65,-19.54C535.41,-19.54 546.02,-19.54 555.83,-19.54"/>
<polygon fill="black" stroke="black" points="555.72,-23.04 565.72,-19.54 555.72,-16.04 555.72,-23.04"/>
<text xml:space="preserve" text-anchor="middle" x="546.86" y="-22.74" font-family="Times New Roman,serif" font-size="14.00">s</text>
</g>
</g>
</svg>
