<?xml version="1.0" encoding="UTF-8" standalone="no"?>
<!DOCTYPE svg PUBLIC "-//W3C//DTD SVG 1.1//EN"
 "http://www.w3.org/Graphics/SVG/1.1/DTD/svg11.dtd">
<!-- Generated by graphviz version 13.1.1 (20250719.2154)
 -->
<!-- Pages: 1 -->
<svg width="513pt" height="223pt"
 viewBox="0.00 0.00 513.00 223.00" xmlns="http://www.w3.org/2000/svg" xmlns:xlink="http://www.w3.org/1999/xlink">
<g id="graph0" class="graph" transform="scale(1 1) rotate(0) translate(4 219)">
<polygon fill="white" stroke="none" points="-4,4 -4,-219 508.75,-219 508.75,4 -4,4"/>
<!-- 0 -->
<g id="node1" class="node">
<title>0</title>
<ellipse fill="black" stroke="black" cx="36.88" cy="-96" rx="3.6" ry="3.6"/>
</g>
<!-- 1 -->
<g id="node2" class="node">
<title>1</title>
<ellipse fill="lightblue" stroke="black" cx="172.75" cy="-96" rx="18" ry="18"/>
<text xml:space="preserve" text-anchor="middle" x="172.75" y="-90.95" font-family="Times New Roman,serif" font-size="14.00">1</text>
</g>
<!-- 0&#45;&gt;1 -->
<g id="edge1" class="edge">
<title>0&#45;&gt;1</title>
<path fill="none" stroke="black" d="M40.67,-96C53.64,-96 108.73,-96 143.23,-96"/>
<polygon fill="black" stroke="black" points="142.96,-99.5 152.96,-96 142.96,-92.5 142.96,-99.5"/>
<text xml:space="preserve" text-anchor="middle" x="114.25" y="-99.05" font-family="Times New Roman,serif" font-size="11.00">noun:noun</text>
</g>
<!-- 2 -->
<g id="node3" class="node">
<title>2</title>
<ellipse fill="lightblue" stroke="black" cx="379.75" cy="-184" rx="18" ry="18"/>
<text xml:space="preserve" text-anchor="middle" x="379.75" y="-178.95" font-family="Times New Roman,serif" font-size="14.00">2</text>
</g>
<!-- 1&#45;&gt;2 -->
<g id="edge2" class="edge">
<title>1&#45;&gt;2</title>
<path fill="none" stroke="black" d="M182.55,-111.6C188.71,-121.15 197.78,-132.88 208.75,-140 252.85,-168.65 314.71,-178.67 350.37,-182.15"/>
<polygon fill="black" stroke="black" points="349.62,-185.6 359.88,-182.97 350.22,-178.63 349.62,-185.6"/>
<text xml:space="preserve" text-anchor="middle" x="273.25" y="-183.33" font-family="Times New Roman,serif" font-size="11.00">[s,z,x,ch,sh]:[s,z,x,ch,sh]</text>
</g>
<!-- 3 -->
<g id="node4" class="node">
<title>3</title>
<ellipse fill="lightblue" stroke="black" cx="379.75" cy="-130" rx="18" ry="18"/>
<text xml:space="preserve" text-anchor="middle" x="379.75" y="-124.95" font-family="Times New Roman,serif" font-size="14.00">3</text>
</g>
<!-- 1&#45;&gt;3 -->
<g id="edge3" class="edge">
<title>1&#45;&gt;3</title>
<path fill="none" stroke="black" d="M190.88,-98.84C226.15,-104.69 307.2,-118.13 350.41,-125.3"/>
<polygon fill="black" stroke="black" points="349.6,-128.71 360.04,-126.9 350.74,-121.81 349.6,-128.71"/>
<text xml:space="preserve" text-anchor="middle" x="273.25" y="-125.71" font-family="Times New Roman,serif" font-size="11.00">[consonant+y]:[consonant+y]</text>
</g>
<!-- 4 -->
<g id="node5" class="node">
<title>4</title>
<ellipse fill="lightgreen" stroke="black" cx="482.75" cy="-130" rx="18" ry="18"/>
<ellipse fill="none" stroke="black" cx="482.75" cy="-130" rx="22" ry="22"/>
<text xml:space="preserve" text-anchor="middle" x="482.75" y="-124.95" font-family="Times New Roman,serif" font-size="14.00">4</text>
</g>
<!-- 1&#45;&gt;4 -->
<g id="edge4" class="edge">
<title>1&#45;&gt;4</title>
<path fill="none" stroke="black" d="M190.81,-92.48C229.41,-85.18 326.14,-70.55 403.75,-89.5 421.64,-93.87 440,-103.12 454.41,-111.68"/>
<polygon fill="black" stroke="black" points="452.51,-114.62 462.86,-116.91 456.2,-108.67 452.51,-114.62"/>
<text xml:space="preserve" text-anchor="middle" x="379.75" y="-92.55" font-family="Times New Roman,serif" font-size="11.00">other:other</text>
</g>
<!-- 5 -->
<g id="node6" class="node">
<title>5</title>
<ellipse fill="lightcoral" stroke="black" cx="379.75" cy="-22" rx="18" ry="18"/>
<ellipse fill="none" stroke="black" cx="379.75" cy="-22" rx="22" ry="22"/>
<text xml:space="preserve" text-anchor="middle" x="379.75" y="-16.95" font-family="Times New Roman,serif" font-size="14.00">5</text>
</g>
<!-- 1&#45;&gt;5 -->
<g id="edge5" class="edge">
<title>1&#45;&gt;5</title>
<path fill="none" stroke="black" d="M182.41,-80.29C188.51,-70.73 197.58,-59.13 208.75,-52.5 251.5,-27.14 310.16,-21.84 346.21,-21.25"/>
<polygon fill="black" stroke="black" points="346.01,-24.75 356,-21.21 345.98,-17.75 346.01,-24.75"/>
<text xml:space="preserve" text-anchor="middle" x="273.25" y="-55.55" font-family="Times New Roman,serif" font-size="11.00">invalid:Invalid Word</text>
</g>
<!-- 2&#45;&gt;4 -->
<g id="edge6" class="edge">
<title>2&#45;&gt;4</title>
<path fill="none" stroke="black" d="M396.09,-175.8C411.11,-167.77 434.36,-155.34 452.85,-145.45"/>
<polygon fill="black" stroke="black" points="454.31,-148.64 461.48,-140.84 451.01,-142.47 454.31,-148.64"/>
<text xml:space="preserve" text-anchor="middle" x="432.25" y="-164.89" font-family="Times New Roman,serif" font-size="11.00">ε:es</text>
</g>
<!-- 3&#45;&gt;4 -->
<g id="edge7" class="edge">
<title>3&#45;&gt;4</title>
<path fill="none" stroke="black" d="M397.88,-130C411.88,-130 432.06,-130 449.11,-130"/>
<polygon fill="black" stroke="black" points="448.8,-133.5 458.8,-130 448.8,-126.5 448.8,-133.5"/>
<text xml:space="preserve" text-anchor="middle" x="432.25" y="-133.05" font-family="Times New Roman,serif" font-size="11.00">y:ies</text>
</g>
<!-- 4&#45;&gt;4 -->
<g id="edge8" class="edge">
<title>4&#45;&gt;4</title>
<path fill="none" stroke="black" d="M478.09,-151.81C477.65,-161.56 479.2,-170 482.75,-170 484.75,-170 486.11,-167.33 486.85,-163.26"/>
<polygon fill="black" stroke="black" points="490.34,-163.48 487.34,-153.32 483.35,-163.13 490.34,-163.48"/>
<text xml:space="preserve" text-anchor="middle" x="482.75" y="-173.05" font-family="Times New Roman,serif" font-size="11.00">ε:+N+SG</text>
</g>
<!-- 4&#45;&gt;4 -->
<g id="edge9" class="edge">
<title>4&#45;&gt;4</title>
<path fill="none" stroke="black" d="M474.84,-150.81C471.24,-168.88 473.87,-188 482.75,-188 489.75,-188 492.87,-176.1 492.1,-162.2"/>
<polygon fill="black" stroke="black" points="495.58,-161.79 490.85,-152.31 488.64,-162.68 495.58,-161.79"/>
<text xml:space="preserve" text-anchor="middle" x="482.75" y="-191.05" font-family="Times New Roman,serif" font-size="11.00">ε:+N+PL</text>
</g>
<!-- ex1 -->
<g id="node7" class="node">
<title>ex1</title>
<polygon fill="lightyellow" stroke="black" points="73.75,-192 0,-192 0,-118 73.75,-118 73.75,-192"/>
<text xml:space="preserve" text-anchor="middle" x="36.88" y="-174.7" font-family="Times New Roman,serif" font-size="14.00">Examples:</text>
<text xml:space="preserve" text-anchor="middle" x="36.88" y="-158.2" font-family="Times New Roman,serif" font-size="14.00">fox:foxes</text>
<text xml:space="preserve" text-anchor="middle" x="36.88" y="-141.7" font-family="Times New Roman,serif" font-size="14.00">try:tries</text>
<text xml:space="preserve" text-anchor="middle" x="36.88" y="-125.2" font-family="Times New Roman,serif" font-size="14.00">bag:bags</text>
</g>
</g>
</svg>
