<?xml version="1.0" encoding="UTF-8" standalone="no"?>
<!DOCTYPE svg PUBLIC "-//W3C//DTD SVG 1.1//EN"
 "http://www.w3.org/Graphics/SVG/1.1/DTD/svg11.dtd">
<!-- Generated by graphviz version 13.1.1 (20250719.2154)
 -->
<!-- Title: NounMorphologyFST Pages: 1 -->
<svg width="490pt" height="297pt"
 viewBox="0.00 0.00 490.00 297.00" xmlns="http://www.w3.org/2000/svg" xmlns:xlink="http://www.w3.org/1999/xlink">
<g id="graph0" class="graph" transform="scale(1 1) rotate(0) translate(4 292.7)">
<title>NounMorphologyFST</title>
<polygon fill="white" stroke="none" points="-4,4 -4,-292.7 486.31,-292.7 486.31,4 -4,4"/>
<!-- 0 -->
<g id="node1" class="node">
<title>0</title>
<ellipse fill="black" stroke="black" cx="238.62" cy="-285.1" rx="3.6" ry="3.6"/>
</g>
<!-- 1 -->
<g id="node2" class="node">
<title>1</title>
<ellipse fill="none" stroke="black" cx="238.62" cy="-211" rx="27" ry="18"/>
<text xml:space="preserve" text-anchor="middle" x="238.62" y="-205.95" font-family="Times New Roman,serif" font-size="14.00">1</text>
</g>
<!-- 0&#45;&gt;1 -->
<g id="edge1" class="edge">
<title>0&#45;&gt;1</title>
<path fill="none" stroke="black" d="M238.62,-281C238.62,-274 238.62,-256.34 238.62,-240.64"/>
<polygon fill="black" stroke="black" points="242.12,-240.74 238.62,-230.74 235.12,-240.74 242.12,-240.74"/>
<text xml:space="preserve" text-anchor="middle" x="267.49" y="-250.2" font-family="Times New Roman,serif" font-size="14.00">noun:noun</text>
</g>
<!-- 2 -->
<g id="node3" class="node">
<title>2</title>
<ellipse fill="none" stroke="black" cx="34.62" cy="-118.5" rx="27" ry="18"/>
<text xml:space="preserve" text-anchor="middle" x="34.62" y="-113.45" font-family="Times New Roman,serif" font-size="14.00">2</text>
</g>
<!-- 1&#45;&gt;2 -->
<g id="edge2" class="edge">
<title>1&#45;&gt;2</title>
<path fill="none" stroke="black" d="M211.24,-210.17C155.27,-209.87 30.81,-205.68 4.37,-175 -4.14,-165.13 1.75,-152.47 10.52,-141.74"/>
<polygon fill="black" stroke="black" points="13.08,-144.12 17.28,-134.39 7.93,-139.38 13.08,-144.12"/>
<text xml:space="preserve" text-anchor="middle" x="72.99" y="-161.7" font-family="Times New Roman,serif" font-size="14.00">[s,z,x,ch,sh]:[s,z,x,ch,sh]</text>
</g>
<!-- 3 -->
<g id="node4" class="node">
<title>3</title>
<ellipse fill="none" stroke="black" cx="150.62" cy="-118.5" rx="27" ry="18"/>
<text xml:space="preserve" text-anchor="middle" x="150.62" y="-113.45" font-family="Times New Roman,serif" font-size="14.00">3</text>
</g>
<!-- 1&#45;&gt;3 -->
<g id="edge3" class="edge">
<title>1&#45;&gt;3</title>
<path fill="none" stroke="black" d="M212.02,-207.13C191.69,-203.39 164.94,-194.78 151.37,-175 146,-167.18 144.65,-157.17 145.02,-147.8"/>
<polygon fill="black" stroke="black" points="148.48,-148.33 146.08,-138.01 141.52,-147.58 148.48,-148.33"/>
<text xml:space="preserve" text-anchor="middle" x="231.99" y="-161.7" font-family="Times New Roman,serif" font-size="14.00">[consonant+y]:[consonant+y]</text>
</g>
<!-- 4 -->
<g id="node5" class="node">
<title>4</title>
<ellipse fill="none" stroke="black" cx="150.62" cy="-22" rx="18" ry="18"/>
<ellipse fill="none" stroke="black" cx="150.62" cy="-22" rx="22" ry="22"/>
<text xml:space="preserve" text-anchor="middle" x="150.62" y="-16.95" font-family="Times New Roman,serif" font-size="14.00">4</text>
</g>
<!-- 1&#45;&gt;4 -->
<g id="edge4" class="edge">
<title>1&#45;&gt;4</title>
<path fill="none" stroke="black" d="M263.7,-204.11C289.24,-196.71 323.62,-182.04 312.62,-158.5 285.38,-100.2 219.35,-58.15 180.52,-37.47"/>
<polygon fill="black" stroke="black" points="182.18,-34.39 171.69,-32.91 178.96,-40.61 182.18,-34.39"/>
<text xml:space="preserve" text-anchor="middle" x="331.57" y="-113.45" font-family="Times New Roman,serif" font-size="14.00">other:other</text>
</g>
<!-- 5 -->
<g id="node6" class="node">
<title>5</title>
<ellipse fill="none" stroke="black" cx="425.62" cy="-118.5" rx="18" ry="18"/>
<ellipse fill="none" stroke="black" cx="425.62" cy="-118.5" rx="22" ry="22"/>
<text xml:space="preserve" text-anchor="middle" x="425.62" y="-113.45" font-family="Times New Roman,serif" font-size="14.00">5</text>
</g>
<!-- 1&#45;&gt;5 -->
<g id="edge5" class="edge">
<title>1&#45;&gt;5</title>
<path fill="none" stroke="black" d="M263.62,-203.31C284.7,-197.23 315.38,-187.33 340.62,-175 361.4,-164.85 383.21,-150.52 399.54,-138.96"/>
<polygon fill="black" stroke="black" points="401.17,-142.1 407.24,-133.42 397.08,-136.42 401.17,-142.1"/>
<text xml:space="preserve" text-anchor="middle" x="426.06" y="-161.7" font-family="Times New Roman,serif" font-size="14.00">invalid:Invalid Word</text>
</g>
<!-- 2&#45;&gt;4 -->
<g id="edge6" class="edge">
<title>2&#45;&gt;4</title>
<path fill="none" stroke="black" d="M51.24,-103.96C70.62,-88.17 102.86,-61.9 125.35,-43.59"/>
<polygon fill="black" stroke="black" points="127.31,-46.5 132.85,-37.47 122.89,-41.07 127.31,-46.5"/>
<text xml:space="preserve" text-anchor="middle" x="110.06" y="-65.2" font-family="Times New Roman,serif" font-size="14.00">ε:es</text>
</g>
<!-- 3&#45;&gt;4 -->
<g id="edge7" class="edge">
<title>3&#45;&gt;4</title>
<path fill="none" stroke="black" d="M150.62,-100.17C150.62,-87.72 150.62,-70.57 150.62,-55.6"/>
<polygon fill="black" stroke="black" points="154.12,-55.71 150.62,-45.71 147.12,-55.71 154.12,-55.71"/>
<text xml:space="preserve" text-anchor="middle" x="163.37" y="-65.2" font-family="Times New Roman,serif" font-size="14.00">y:ies</text>
</g>
<!-- 4&#45;&gt;4 -->
<g id="edge8" class="edge">
<title>4&#45;&gt;4</title>
<path fill="none" stroke="black" d="M172.42,-26.45C182.18,-26.88 190.62,-25.39 190.62,-22 190.62,-20.09 187.95,-18.79 183.87,-18.09"/>
<polygon fill="black" stroke="black" points="184.09,-14.59 173.94,-17.62 183.76,-21.58 184.09,-14.59"/>
<text xml:space="preserve" text-anchor="middle" x="217.24" y="-16.95" font-family="Times New Roman,serif" font-size="14.00">ε:+N+SG</text>
</g>
<!-- 4&#45;&gt;4 -->
<g id="edge9" class="edge">
<title>4&#45;&gt;4</title>
<path fill="none" stroke="black" d="M172,-28.57C200.98,-33.38 243.87,-31.19 243.87,-22 243.87,-13.96 211.03,-11.28 183.41,-13.96"/>
<polygon fill="black" stroke="black" points="182.97,-10.48 173.5,-15.24 183.86,-17.43 182.97,-10.48"/>
<text xml:space="preserve" text-anchor="middle" x="269.74" y="-16.95" font-family="Times New Roman,serif" font-size="14.00">ε:+N+PL</text>
</g>
</g>
</svg>
